<mxfile host="65bd71144e" pages="2">
    <diagram name="Conceptual" id="UL-TemmSq8WLe6rxtjmb">
        <mxGraphModel dx="2303" dy="1654" grid="1" gridSize="10" guides="1" tooltips="1" connect="1" arrows="1" fold="1" page="1" pageScale="1" pageWidth="1169" pageHeight="827" math="0" shadow="0">
            <root>
                <mxCell id="0"/>
                <mxCell id="1" parent="0"/>
                <mxCell id="PYBF5W4fdAsEixI2KdSS-1" value="PROJECT" style="ellipse;whiteSpace=wrap;html=1;fillColor=#fa6800;strokeColor=#C73500;fontColor=#000000;" parent="1" vertex="1">
                    <mxGeometry x="220" y="459" width="120" height="80" as="geometry"/>
                </mxCell>
                <mxCell id="PYBF5W4fdAsEixI2KdSS-2" value="ACTIVITY" style="ellipse;whiteSpace=wrap;html=1;fillColor=#fa6800;strokeColor=#C73500;fontColor=#000000;" parent="1" vertex="1">
                    <mxGeometry x="-190" y="460" width="120" height="80" as="geometry"/>
                </mxCell>
                <mxCell id="PYBF5W4fdAsEixI2KdSS-3" value="USER" style="ellipse;whiteSpace=wrap;html=1;fillColor=#fa6800;strokeColor=#C73500;fontColor=#000000;" parent="1" vertex="1">
                    <mxGeometry x="170" y="95" width="120" height="80" as="geometry"/>
                </mxCell>
                <mxCell id="PYBF5W4fdAsEixI2KdSS-4" value="TASK" style="ellipse;whiteSpace=wrap;html=1;fillColor=#fa6800;strokeColor=#C73500;fontColor=#000000;" parent="1" vertex="1">
                    <mxGeometry x="-190" y="94" width="120" height="80" as="geometry"/>
                </mxCell>
                <mxCell id="PYBF5W4fdAsEixI2KdSS-5" value="ROLE" style="ellipse;whiteSpace=wrap;html=1;fillColor=#fa6800;strokeColor=#C73500;fontColor=#000000;" parent="1" vertex="1">
                    <mxGeometry x="500" y="270" width="120" height="80" as="geometry"/>
                </mxCell>
                <mxCell id="PYBF5W4fdAsEixI2KdSS-7" value="CREA" style="rhombus;whiteSpace=wrap;html=1;fillColor=#1ba1e2;strokeColor=#006EAF;fontColor=#ffffff;" parent="1" vertex="1">
                    <mxGeometry x="140" y="303" width="80" height="80" as="geometry"/>
                </mxCell>
                <mxCell id="zOyQMbyOPdW88MX2vFnT-1" value="" style="endArrow=none;html=1;rounded=0;entryX=0.5;entryY=0;entryDx=0;entryDy=0;exitX=0.5;exitY=1;exitDx=0;exitDy=0;" parent="1" source="PYBF5W4fdAsEixI2KdSS-3" target="PYBF5W4fdAsEixI2KdSS-7" edge="1">
                    <mxGeometry width="50" height="50" relative="1" as="geometry">
                        <mxPoint x="-175" y="260" as="sourcePoint"/>
                        <mxPoint x="35" y="250" as="targetPoint"/>
                        <Array as="points"/>
                    </mxGeometry>
                </mxCell>
                <mxCell id="zOyQMbyOPdW88MX2vFnT-2" value="" style="endArrow=none;html=1;rounded=0;exitX=0.5;exitY=1;exitDx=0;exitDy=0;entryX=0;entryY=0;entryDx=0;entryDy=0;" parent="1" source="PYBF5W4fdAsEixI2KdSS-7" target="PYBF5W4fdAsEixI2KdSS-1" edge="1">
                    <mxGeometry width="50" height="50" relative="1" as="geometry">
                        <mxPoint x="380" y="410" as="sourcePoint"/>
                        <mxPoint x="100" y="320" as="targetPoint"/>
                    </mxGeometry>
                </mxCell>
                <mxCell id="zOyQMbyOPdW88MX2vFnT-3" value="PARTICIPA" style="rhombus;whiteSpace=wrap;html=1;fillColor=#1ba1e2;strokeColor=#006EAF;fontColor=#ffffff;" parent="1" vertex="1">
                    <mxGeometry x="315" y="285" width="90" height="90" as="geometry"/>
                </mxCell>
                <mxCell id="zOyQMbyOPdW88MX2vFnT-4" value="" style="endArrow=none;html=1;rounded=0;entryX=0.5;entryY=0;entryDx=0;entryDy=0;exitX=1;exitY=1;exitDx=0;exitDy=0;" parent="1" source="PYBF5W4fdAsEixI2KdSS-3" target="zOyQMbyOPdW88MX2vFnT-3" edge="1">
                    <mxGeometry width="50" height="50" relative="1" as="geometry">
                        <mxPoint x="250" y="310" as="sourcePoint"/>
                        <mxPoint x="430" y="360" as="targetPoint"/>
                    </mxGeometry>
                </mxCell>
                <mxCell id="zOyQMbyOPdW88MX2vFnT-5" value="" style="endArrow=none;html=1;rounded=0;entryX=1;entryY=0;entryDx=0;entryDy=0;exitX=0.5;exitY=1;exitDx=0;exitDy=0;" parent="1" source="zOyQMbyOPdW88MX2vFnT-3" target="PYBF5W4fdAsEixI2KdSS-1" edge="1">
                    <mxGeometry width="50" height="50" relative="1" as="geometry">
                        <mxPoint x="490" y="270" as="sourcePoint"/>
                        <mxPoint x="430" y="360" as="targetPoint"/>
                    </mxGeometry>
                </mxCell>
                <mxCell id="zOyQMbyOPdW88MX2vFnT-7" value="1" style="text;html=1;align=center;verticalAlign=middle;whiteSpace=wrap;rounded=0;" parent="1" vertex="1">
                    <mxGeometry x="240" y="439" width="20" height="20" as="geometry"/>
                </mxCell>
                <mxCell id="zOyQMbyOPdW88MX2vFnT-8" value="N" style="text;html=1;align=center;verticalAlign=middle;whiteSpace=wrap;rounded=0;" parent="1" vertex="1">
                    <mxGeometry x="160" y="384" width="20" height="10" as="geometry"/>
                </mxCell>
                <mxCell id="zOyQMbyOPdW88MX2vFnT-9" value="1" style="text;html=1;align=center;verticalAlign=middle;whiteSpace=wrap;rounded=0;" parent="1" vertex="1">
                    <mxGeometry x="330" y="459" width="20" height="20" as="geometry"/>
                </mxCell>
                <mxCell id="zOyQMbyOPdW88MX2vFnT-11" value="1" style="text;html=1;align=center;verticalAlign=middle;whiteSpace=wrap;rounded=0;" parent="1" vertex="1">
                    <mxGeometry x="290" y="164" width="20" height="30" as="geometry"/>
                </mxCell>
                <mxCell id="zOyQMbyOPdW88MX2vFnT-13" value="N" style="text;html=1;align=center;verticalAlign=middle;whiteSpace=wrap;rounded=0;" parent="1" vertex="1">
                    <mxGeometry x="355" y="250" width="20" height="30" as="geometry"/>
                </mxCell>
                <mxCell id="zOyQMbyOPdW88MX2vFnT-16" value="N" style="text;html=1;align=center;verticalAlign=middle;whiteSpace=wrap;rounded=0;" parent="1" vertex="1">
                    <mxGeometry x="360" y="373" width="20" height="30" as="geometry"/>
                </mxCell>
                <mxCell id="zOyQMbyOPdW88MX2vFnT-17" value="TIENE" style="rhombus;whiteSpace=wrap;html=1;fillColor=#1ba1e2;strokeColor=#006EAF;fontColor=#ffffff;" parent="1" vertex="1">
                    <mxGeometry x="40" y="459" width="80" height="80" as="geometry"/>
                </mxCell>
                <mxCell id="zOyQMbyOPdW88MX2vFnT-19" value="" style="endArrow=none;html=1;rounded=0;exitX=1;exitY=0.5;exitDx=0;exitDy=0;entryX=0;entryY=0.5;entryDx=0;entryDy=0;" parent="1" source="zOyQMbyOPdW88MX2vFnT-17" target="PYBF5W4fdAsEixI2KdSS-1" edge="1">
                    <mxGeometry width="50" height="50" relative="1" as="geometry">
                        <mxPoint x="380" y="550" as="sourcePoint"/>
                        <mxPoint x="430" y="500" as="targetPoint"/>
                    </mxGeometry>
                </mxCell>
                <mxCell id="zOyQMbyOPdW88MX2vFnT-20" value="" style="endArrow=none;html=1;rounded=0;exitX=0;exitY=0.5;exitDx=0;exitDy=0;" parent="1" source="zOyQMbyOPdW88MX2vFnT-17" target="PYBF5W4fdAsEixI2KdSS-2" edge="1">
                    <mxGeometry width="50" height="50" relative="1" as="geometry">
                        <mxPoint x="380" y="550" as="sourcePoint"/>
                        <mxPoint x="410" y="550" as="targetPoint"/>
                    </mxGeometry>
                </mxCell>
                <mxCell id="zOyQMbyOPdW88MX2vFnT-21" value="1" style="text;html=1;align=center;verticalAlign=middle;whiteSpace=wrap;rounded=0;" parent="1" vertex="1">
                    <mxGeometry x="160" y="273" width="20" height="30" as="geometry"/>
                </mxCell>
                <mxCell id="zOyQMbyOPdW88MX2vFnT-26" value="TIENE" style="rhombus;whiteSpace=wrap;html=1;fillColor=#1ba1e2;strokeColor=#006EAF;fontColor=#ffffff;" parent="1" vertex="1">
                    <mxGeometry x="30" y="263" width="80" height="80" as="geometry"/>
                </mxCell>
                <mxCell id="zOyQMbyOPdW88MX2vFnT-29" value="" style="endArrow=none;html=1;rounded=0;exitX=0;exitY=1;exitDx=0;exitDy=0;entryX=1;entryY=0;entryDx=0;entryDy=0;" parent="1" source="PYBF5W4fdAsEixI2KdSS-3" target="zOyQMbyOPdW88MX2vFnT-26" edge="1">
                    <mxGeometry width="50" height="50" relative="1" as="geometry">
                        <mxPoint x="55" y="110" as="sourcePoint"/>
                        <mxPoint x="-30" y="-80" as="targetPoint"/>
                    </mxGeometry>
                </mxCell>
                <mxCell id="zOyQMbyOPdW88MX2vFnT-30" value="" style="endArrow=none;html=1;rounded=0;entryX=0;entryY=1;entryDx=0;entryDy=0;exitX=1;exitY=0;exitDx=0;exitDy=0;" parent="1" source="PYBF5W4fdAsEixI2KdSS-2" target="zOyQMbyOPdW88MX2vFnT-26" edge="1">
                    <mxGeometry width="50" height="50" relative="1" as="geometry">
                        <mxPoint x="-70" y="310" as="sourcePoint"/>
                        <mxPoint x="400" y="630" as="targetPoint"/>
                    </mxGeometry>
                </mxCell>
                <mxCell id="zOyQMbyOPdW88MX2vFnT-44" value="TIENE" style="rhombus;whiteSpace=wrap;html=1;fillColor=#1ba1e2;strokeColor=#006EAF;fontColor=#ffffff;" parent="1" vertex="1">
                    <mxGeometry x="520" y="82" width="80" height="80" as="geometry"/>
                </mxCell>
                <mxCell id="zOyQMbyOPdW88MX2vFnT-45" value="" style="endArrow=none;html=1;rounded=0;exitX=1.008;exitY=0.329;exitDx=0;exitDy=0;entryX=0;entryY=0.5;entryDx=0;entryDy=0;exitPerimeter=0;" parent="1" source="PYBF5W4fdAsEixI2KdSS-3" target="zOyQMbyOPdW88MX2vFnT-44" edge="1">
                    <mxGeometry width="50" height="50" relative="1" as="geometry">
                        <mxPoint x="400" y="200" as="sourcePoint"/>
                        <mxPoint x="450" y="150" as="targetPoint"/>
                    </mxGeometry>
                </mxCell>
                <mxCell id="zOyQMbyOPdW88MX2vFnT-46" value="1" style="text;html=1;align=center;verticalAlign=middle;whiteSpace=wrap;rounded=0;" parent="1" vertex="1">
                    <mxGeometry x="300" y="103" width="20" height="30" as="geometry"/>
                </mxCell>
                <mxCell id="zOyQMbyOPdW88MX2vFnT-47" value="N" style="text;html=1;align=center;verticalAlign=middle;whiteSpace=wrap;rounded=0;" parent="1" vertex="1">
                    <mxGeometry x="380" y="94" width="20" height="30" as="geometry"/>
                </mxCell>
                <mxCell id="zOyQMbyOPdW88MX2vFnT-48" value="1" style="text;html=1;align=center;verticalAlign=middle;whiteSpace=wrap;rounded=0;" parent="1" vertex="1">
                    <mxGeometry x="565" y="240" width="20" height="30" as="geometry"/>
                </mxCell>
                <mxCell id="zOyQMbyOPdW88MX2vFnT-49" value="" style="endArrow=none;html=1;rounded=0;exitX=0.5;exitY=1;exitDx=0;exitDy=0;entryX=0.5;entryY=0;entryDx=0;entryDy=0;" parent="1" source="zOyQMbyOPdW88MX2vFnT-44" target="PYBF5W4fdAsEixI2KdSS-5" edge="1">
                    <mxGeometry width="50" height="50" relative="1" as="geometry">
                        <mxPoint x="400" y="220" as="sourcePoint"/>
                        <mxPoint x="450" y="170" as="targetPoint"/>
                        <Array as="points"/>
                    </mxGeometry>
                </mxCell>
                <mxCell id="zOyQMbyOPdW88MX2vFnT-50" value="N" style="text;html=1;align=center;verticalAlign=middle;whiteSpace=wrap;rounded=0;" parent="1" vertex="1">
                    <mxGeometry x="540" y="157" width="20" height="30" as="geometry"/>
                </mxCell>
                <mxCell id="zOyQMbyOPdW88MX2vFnT-51" value="TIENE" style="rhombus;whiteSpace=wrap;html=1;fillColor=#1ba1e2;strokeColor=#006EAF;fontColor=#ffffff;" parent="1" vertex="1">
                    <mxGeometry x="520" y="460" width="80" height="80" as="geometry"/>
                </mxCell>
                <mxCell id="zOyQMbyOPdW88MX2vFnT-54" value="" style="endArrow=none;html=1;rounded=0;entryX=0.5;entryY=1;entryDx=0;entryDy=0;exitX=0.5;exitY=0;exitDx=0;exitDy=0;" parent="1" source="zOyQMbyOPdW88MX2vFnT-51" target="PYBF5W4fdAsEixI2KdSS-5" edge="1">
                    <mxGeometry width="50" height="50" relative="1" as="geometry">
                        <mxPoint x="575" y="305" as="sourcePoint"/>
                        <mxPoint x="625" y="255" as="targetPoint"/>
                    </mxGeometry>
                </mxCell>
                <mxCell id="zOyQMbyOPdW88MX2vFnT-55" value="" style="endArrow=none;html=1;rounded=0;exitX=1;exitY=0.5;exitDx=0;exitDy=0;entryX=0;entryY=0.5;entryDx=0;entryDy=0;" parent="1" source="PYBF5W4fdAsEixI2KdSS-1" target="zOyQMbyOPdW88MX2vFnT-51" edge="1">
                    <mxGeometry width="50" height="50" relative="1" as="geometry">
                        <mxPoint x="740" y="380" as="sourcePoint"/>
                        <mxPoint x="790" y="330" as="targetPoint"/>
                    </mxGeometry>
                </mxCell>
                <mxCell id="zOyQMbyOPdW88MX2vFnT-58" value="N" style="text;html=1;align=center;verticalAlign=middle;whiteSpace=wrap;rounded=0;" parent="1" vertex="1">
                    <mxGeometry x="565" y="350" width="20" height="30" as="geometry"/>
                </mxCell>
                <mxCell id="zOyQMbyOPdW88MX2vFnT-59" value="1" style="text;html=1;align=center;verticalAlign=middle;whiteSpace=wrap;rounded=0;" parent="1" vertex="1">
                    <mxGeometry x="340" y="490" width="20" height="30" as="geometry"/>
                </mxCell>
                <mxCell id="zOyQMbyOPdW88MX2vFnT-60" value="1" style="text;html=1;align=center;verticalAlign=middle;whiteSpace=wrap;rounded=0;" parent="1" vertex="1">
                    <mxGeometry x="530" y="439" width="20" height="30" as="geometry"/>
                </mxCell>
                <mxCell id="zOyQMbyOPdW88MX2vFnT-63" value="TIENE" style="rhombus;whiteSpace=wrap;html=1;fillColor=#1ba1e2;strokeColor=#006EAF;fontColor=#ffffff;" parent="1" vertex="1">
                    <mxGeometry x="-170" y="285" width="80" height="80" as="geometry"/>
                </mxCell>
                <mxCell id="zOyQMbyOPdW88MX2vFnT-64" value="" style="endArrow=none;html=1;rounded=0;exitX=0.5;exitY=0;exitDx=0;exitDy=0;entryX=0.5;entryY=1;entryDx=0;entryDy=0;" parent="1" source="PYBF5W4fdAsEixI2KdSS-2" target="zOyQMbyOPdW88MX2vFnT-63" edge="1">
                    <mxGeometry width="50" height="50" relative="1" as="geometry">
                        <mxPoint x="-10" y="290" as="sourcePoint"/>
                        <mxPoint x="40" y="240" as="targetPoint"/>
                        <Array as="points"/>
                    </mxGeometry>
                </mxCell>
                <mxCell id="zOyQMbyOPdW88MX2vFnT-65" value="" style="endArrow=none;html=1;rounded=0;exitX=0.5;exitY=1;exitDx=0;exitDy=0;entryX=0.5;entryY=0;entryDx=0;entryDy=0;" parent="1" source="PYBF5W4fdAsEixI2KdSS-4" target="zOyQMbyOPdW88MX2vFnT-63" edge="1">
                    <mxGeometry width="50" height="50" relative="1" as="geometry">
                        <mxPoint x="-10" y="290" as="sourcePoint"/>
                        <mxPoint x="40" y="240" as="targetPoint"/>
                    </mxGeometry>
                </mxCell>
                <mxCell id="zOyQMbyOPdW88MX2vFnT-66" value="TIENE" style="rhombus;whiteSpace=wrap;html=1;fillColor=#1ba1e2;strokeColor=#006EAF;fontColor=#ffffff;" parent="1" vertex="1">
                    <mxGeometry y="94" width="80" height="80" as="geometry"/>
                </mxCell>
                <mxCell id="zOyQMbyOPdW88MX2vFnT-69" value="1" style="text;html=1;align=center;verticalAlign=middle;whiteSpace=wrap;rounded=0;" parent="1" vertex="1">
                    <mxGeometry x="230" y="179" width="20" height="16" as="geometry"/>
                </mxCell>
                <mxCell id="zOyQMbyOPdW88MX2vFnT-74" value="1" style="text;html=1;align=center;verticalAlign=middle;whiteSpace=wrap;rounded=0;" parent="1" vertex="1">
                    <mxGeometry x="80" y="250" width="20" height="16" as="geometry"/>
                </mxCell>
                <mxCell id="zOyQMbyOPdW88MX2vFnT-77" value="N" style="text;html=1;align=center;verticalAlign=middle;whiteSpace=wrap;rounded=0;" parent="1" vertex="1">
                    <mxGeometry x="20" y="320" width="20" height="16" as="geometry"/>
                </mxCell>
                <mxCell id="zOyQMbyOPdW88MX2vFnT-85" value="1" style="text;html=1;align=center;verticalAlign=middle;whiteSpace=wrap;rounded=0;" parent="1" vertex="1">
                    <mxGeometry x="-130" y="176" width="20" height="11" as="geometry"/>
                </mxCell>
                <mxCell id="zOyQMbyOPdW88MX2vFnT-87" value="" style="endArrow=none;html=1;rounded=0;exitX=1;exitY=0.5;exitDx=0;exitDy=0;entryX=0;entryY=0.5;entryDx=0;entryDy=0;" parent="1" source="PYBF5W4fdAsEixI2KdSS-4" target="zOyQMbyOPdW88MX2vFnT-66" edge="1">
                    <mxGeometry width="50" height="50" relative="1" as="geometry">
                        <mxPoint x="-160" y="126" as="sourcePoint"/>
                        <mxPoint x="-110" y="76" as="targetPoint"/>
                    </mxGeometry>
                </mxCell>
                <mxCell id="zOyQMbyOPdW88MX2vFnT-88" value="" style="endArrow=none;html=1;rounded=0;exitX=1;exitY=0.5;exitDx=0;exitDy=0;entryX=0;entryY=0.5;entryDx=0;entryDy=0;" parent="1" source="zOyQMbyOPdW88MX2vFnT-66" target="PYBF5W4fdAsEixI2KdSS-3" edge="1">
                    <mxGeometry width="50" height="50" relative="1" as="geometry">
                        <mxPoint x="220" y="200" as="sourcePoint"/>
                        <mxPoint x="270" y="150" as="targetPoint"/>
                    </mxGeometry>
                </mxCell>
                <mxCell id="zOyQMbyOPdW88MX2vFnT-91" value="1" style="text;html=1;align=center;verticalAlign=middle;whiteSpace=wrap;rounded=0;" parent="1" vertex="1">
                    <mxGeometry x="-70" y="114" width="20" height="16" as="geometry"/>
                </mxCell>
                <mxCell id="zOyQMbyOPdW88MX2vFnT-92" value="N" style="text;html=1;align=center;verticalAlign=middle;whiteSpace=wrap;rounded=0;" parent="1" vertex="1">
                    <mxGeometry x="-10" y="116" width="20" height="16" as="geometry"/>
                </mxCell>
                <mxCell id="zOyQMbyOPdW88MX2vFnT-98" value="1" style="text;html=1;align=center;verticalAlign=middle;whiteSpace=wrap;rounded=0;" parent="1" vertex="1">
                    <mxGeometry x="80" y="117" width="20" height="16" as="geometry"/>
                </mxCell>
                <mxCell id="zOyQMbyOPdW88MX2vFnT-99" value="1" style="text;html=1;align=center;verticalAlign=middle;whiteSpace=wrap;rounded=0;" parent="1" vertex="1">
                    <mxGeometry x="160" y="158" width="20" height="16" as="geometry"/>
                </mxCell>
                <mxCell id="zOyQMbyOPdW88MX2vFnT-100" value="TIENE" style="rhombus;whiteSpace=wrap;html=1;fillColor=#1ba1e2;strokeColor=#006EAF;fontColor=#ffffff;" parent="1" vertex="1">
                    <mxGeometry x="-170" y="-48" width="80" height="80" as="geometry"/>
                </mxCell>
                <mxCell id="zOyQMbyOPdW88MX2vFnT-101" value="ES" style="rhombus;whiteSpace=wrap;html=1;fillColor=#1ba1e2;strokeColor=#006EAF;fontColor=#ffffff;" parent="1" vertex="1">
                    <mxGeometry x="-350" y="460" width="80" height="80" as="geometry"/>
                </mxCell>
                <mxCell id="zOyQMbyOPdW88MX2vFnT-102" value="STATE" style="ellipse;whiteSpace=wrap;html=1;fillColor=#fa6800;strokeColor=#C73500;fontColor=#000000;" parent="1" vertex="1">
                    <mxGeometry x="-190" y="-200" width="120" height="80" as="geometry"/>
                </mxCell>
                <mxCell id="zOyQMbyOPdW88MX2vFnT-103" value="" style="endArrow=none;html=1;rounded=0;exitX=0.5;exitY=0;exitDx=0;exitDy=0;entryX=0.5;entryY=1;entryDx=0;entryDy=0;" parent="1" source="zOyQMbyOPdW88MX2vFnT-100" target="zOyQMbyOPdW88MX2vFnT-102" edge="1">
                    <mxGeometry width="50" height="50" relative="1" as="geometry">
                        <mxPoint x="70" y="30" as="sourcePoint"/>
                        <mxPoint x="120" y="-20" as="targetPoint"/>
                    </mxGeometry>
                </mxCell>
                <mxCell id="zOyQMbyOPdW88MX2vFnT-104" value="" style="endArrow=none;html=1;rounded=0;exitX=0.5;exitY=0;exitDx=0;exitDy=0;entryX=0.5;entryY=1;entryDx=0;entryDy=0;" parent="1" source="PYBF5W4fdAsEixI2KdSS-4" target="zOyQMbyOPdW88MX2vFnT-100" edge="1">
                    <mxGeometry width="50" height="50" relative="1" as="geometry">
                        <mxPoint x="70" y="30" as="sourcePoint"/>
                        <mxPoint x="120" y="-20" as="targetPoint"/>
                    </mxGeometry>
                </mxCell>
                <mxCell id="zOyQMbyOPdW88MX2vFnT-105" value="TIENE" style="rhombus;whiteSpace=wrap;html=1;fillColor=#1ba1e2;strokeColor=#006EAF;fontColor=#ffffff;" parent="1" vertex="1">
                    <mxGeometry x="-350" y="-200" width="80" height="80" as="geometry"/>
                </mxCell>
                <mxCell id="zOyQMbyOPdW88MX2vFnT-106" value="TYPE_STATE" style="ellipse;whiteSpace=wrap;html=1;fillColor=#fa6800;strokeColor=#C73500;fontColor=#000000;" parent="1" vertex="1">
                    <mxGeometry x="-370" y="30" width="120" height="80" as="geometry"/>
                </mxCell>
                <mxCell id="zOyQMbyOPdW88MX2vFnT-107" value="" style="endArrow=none;html=1;rounded=0;exitX=0.5;exitY=0;exitDx=0;exitDy=0;entryX=0.5;entryY=1;entryDx=0;entryDy=0;" parent="1" source="zOyQMbyOPdW88MX2vFnT-106" target="zOyQMbyOPdW88MX2vFnT-105" edge="1">
                    <mxGeometry width="50" height="50" relative="1" as="geometry">
                        <mxPoint x="-230" y="50" as="sourcePoint"/>
                        <mxPoint x="-180" as="targetPoint"/>
                    </mxGeometry>
                </mxCell>
                <mxCell id="zOyQMbyOPdW88MX2vFnT-108" value="" style="endArrow=none;html=1;rounded=0;exitX=1;exitY=0.5;exitDx=0;exitDy=0;entryX=0;entryY=0.5;entryDx=0;entryDy=0;" parent="1" source="zOyQMbyOPdW88MX2vFnT-105" target="zOyQMbyOPdW88MX2vFnT-102" edge="1">
                    <mxGeometry width="50" height="50" relative="1" as="geometry">
                        <mxPoint x="-230" y="50" as="sourcePoint"/>
                        <mxPoint x="-180" as="targetPoint"/>
                    </mxGeometry>
                </mxCell>
                <mxCell id="zOyQMbyOPdW88MX2vFnT-109" value="TYPE_ACTIVITY" style="ellipse;whiteSpace=wrap;html=1;fillColor=#fa6800;strokeColor=#C73500;fontColor=#000000;" parent="1" vertex="1">
                    <mxGeometry x="-370" y="303" width="120" height="80" as="geometry"/>
                </mxCell>
                <mxCell id="zOyQMbyOPdW88MX2vFnT-110" value="" style="endArrow=none;html=1;rounded=0;exitX=0;exitY=0.5;exitDx=0;exitDy=0;entryX=1;entryY=0.5;entryDx=0;entryDy=0;" parent="1" source="PYBF5W4fdAsEixI2KdSS-2" target="zOyQMbyOPdW88MX2vFnT-101" edge="1">
                    <mxGeometry width="50" height="50" relative="1" as="geometry">
                        <mxPoint x="-290" y="230" as="sourcePoint"/>
                        <mxPoint x="-240" y="180" as="targetPoint"/>
                    </mxGeometry>
                </mxCell>
                <mxCell id="zOyQMbyOPdW88MX2vFnT-111" value="" style="endArrow=none;html=1;rounded=0;exitX=0.5;exitY=1;exitDx=0;exitDy=0;entryX=0.5;entryY=0;entryDx=0;entryDy=0;" parent="1" source="zOyQMbyOPdW88MX2vFnT-109" target="zOyQMbyOPdW88MX2vFnT-101" edge="1">
                    <mxGeometry width="50" height="50" relative="1" as="geometry">
                        <mxPoint x="-290" y="230" as="sourcePoint"/>
                        <mxPoint x="-240" y="180" as="targetPoint"/>
                    </mxGeometry>
                </mxCell>
                <mxCell id="zOyQMbyOPdW88MX2vFnT-112" value="DEPENDE" style="rhombus;whiteSpace=wrap;html=1;fillColor=#1ba1e2;strokeColor=#006EAF;fontColor=#ffffff;" parent="1" vertex="1">
                    <mxGeometry x="-350" y="170" width="80" height="80" as="geometry"/>
                </mxCell>
                <mxCell id="zOyQMbyOPdW88MX2vFnT-114" value="" style="endArrow=none;html=1;rounded=0;exitX=0.5;exitY=0;exitDx=0;exitDy=0;entryX=0.5;entryY=1;entryDx=0;entryDy=0;" parent="1" source="zOyQMbyOPdW88MX2vFnT-112" target="zOyQMbyOPdW88MX2vFnT-106" edge="1">
                    <mxGeometry width="50" height="50" relative="1" as="geometry">
                        <mxPoint x="-290" y="230" as="sourcePoint"/>
                        <mxPoint x="-240" y="180" as="targetPoint"/>
                    </mxGeometry>
                </mxCell>
                <mxCell id="zOyQMbyOPdW88MX2vFnT-116" value="TIENE" style="rhombus;whiteSpace=wrap;html=1;fillColor=#1ba1e2;strokeColor=#006EAF;fontColor=#ffffff;" parent="1" vertex="1">
                    <mxGeometry x="195" y="-200" width="80" height="80" as="geometry"/>
                </mxCell>
                <mxCell id="zOyQMbyOPdW88MX2vFnT-124" value="" style="endArrow=none;html=1;rounded=0;entryX=1;entryY=0.5;entryDx=0;entryDy=0;exitX=0;exitY=0.5;exitDx=0;exitDy=0;" parent="1" source="zOyQMbyOPdW88MX2vFnT-116" target="zOyQMbyOPdW88MX2vFnT-102" edge="1">
                    <mxGeometry width="50" height="50" relative="1" as="geometry">
                        <mxPoint x="-40" y="60" as="sourcePoint"/>
                        <mxPoint x="10" y="10" as="targetPoint"/>
                    </mxGeometry>
                </mxCell>
                <mxCell id="zOyQMbyOPdW88MX2vFnT-125" value="" style="endArrow=none;html=1;rounded=0;entryX=0.5;entryY=0;entryDx=0;entryDy=0;" parent="1" source="zOyQMbyOPdW88MX2vFnT-116" target="PYBF5W4fdAsEixI2KdSS-3" edge="1">
                    <mxGeometry width="50" height="50" relative="1" as="geometry">
                        <mxPoint x="-40" y="60" as="sourcePoint"/>
                        <mxPoint x="10" y="10" as="targetPoint"/>
                    </mxGeometry>
                </mxCell>
                <mxCell id="zOyQMbyOPdW88MX2vFnT-145" value="1" style="text;html=1;align=center;verticalAlign=middle;whiteSpace=wrap;rounded=0;" parent="1" vertex="1">
                    <mxGeometry x="-150" y="75" width="20" height="20" as="geometry"/>
                </mxCell>
                <mxCell id="zOyQMbyOPdW88MX2vFnT-146" value="1" style="text;html=1;align=center;verticalAlign=middle;whiteSpace=wrap;rounded=0;" parent="1" vertex="1">
                    <mxGeometry x="-150" y="30" width="20" height="20" as="geometry"/>
                </mxCell>
                <mxCell id="zOyQMbyOPdW88MX2vFnT-156" value="" style="endArrow=none;html=1;rounded=0;exitX=0.5;exitY=0;exitDx=0;exitDy=0;entryX=0.5;entryY=1;entryDx=0;entryDy=0;" parent="1" source="zOyQMbyOPdW88MX2vFnT-109" target="zOyQMbyOPdW88MX2vFnT-112" edge="1">
                    <mxGeometry width="50" height="50" relative="1" as="geometry">
                        <mxPoint x="-330" y="235" as="sourcePoint"/>
                        <mxPoint x="-290" y="200" as="targetPoint"/>
                    </mxGeometry>
                </mxCell>
                <mxCell id="FRvey6ro1h_hTdfhcAXJ-1" value="1" style="text;html=1;align=center;verticalAlign=middle;resizable=0;points=[];autosize=1;strokeColor=none;fillColor=none;" parent="1" vertex="1">
                    <mxGeometry x="200" y="469" width="30" height="30" as="geometry"/>
                </mxCell>
                <mxCell id="FRvey6ro1h_hTdfhcAXJ-2" value="1" style="text;html=1;align=center;verticalAlign=middle;resizable=0;points=[];autosize=1;strokeColor=none;fillColor=none;" parent="1" vertex="1">
                    <mxGeometry x="115" y="469" width="30" height="30" as="geometry"/>
                </mxCell>
                <mxCell id="FRvey6ro1h_hTdfhcAXJ-3" value="N" style="text;html=1;align=center;verticalAlign=middle;resizable=0;points=[];autosize=1;strokeColor=none;fillColor=none;" parent="1" vertex="1">
                    <mxGeometry x="20" y="469" width="30" height="30" as="geometry"/>
                </mxCell>
                <mxCell id="FRvey6ro1h_hTdfhcAXJ-4" value="1" style="text;html=1;align=center;verticalAlign=middle;resizable=0;points=[];autosize=1;strokeColor=none;fillColor=none;" parent="1" vertex="1">
                    <mxGeometry x="-100" y="440" width="30" height="30" as="geometry"/>
                </mxCell>
                <mxCell id="VYR-HZIYaQZ6gmRtWrBO-16" value="1" style="text;html=1;align=center;verticalAlign=middle;whiteSpace=wrap;rounded=0;" parent="1" vertex="1">
                    <mxGeometry x="150" y="114" width="20" height="16" as="geometry"/>
                </mxCell>
                <mxCell id="z6WhGGihtX_Tdaq-nyxz-1" value="1" style="text;html=1;align=center;verticalAlign=middle;whiteSpace=wrap;rounded=0;" parent="1" vertex="1">
                    <mxGeometry x="235" y="-130" width="30" height="30" as="geometry"/>
                </mxCell>
                <mxCell id="z6WhGGihtX_Tdaq-nyxz-3" value="1" style="text;html=1;align=center;verticalAlign=middle;whiteSpace=wrap;rounded=0;" parent="1" vertex="1">
                    <mxGeometry x="-70" y="-190" width="30" height="30" as="geometry"/>
                </mxCell>
                <mxCell id="z6WhGGihtX_Tdaq-nyxz-4" value="N" style="text;html=1;align=center;verticalAlign=middle;whiteSpace=wrap;rounded=0;" parent="1" vertex="1">
                    <mxGeometry x="170" y="-190" width="30" height="30" as="geometry"/>
                </mxCell>
                <mxCell id="z6WhGGihtX_Tdaq-nyxz-5" value="1" style="text;html=1;align=center;verticalAlign=middle;whiteSpace=wrap;rounded=0;" parent="1" vertex="1">
                    <mxGeometry x="-160" y="-120" width="30" height="30" as="geometry"/>
                </mxCell>
                <mxCell id="z6WhGGihtX_Tdaq-nyxz-7" value="N" style="text;html=1;align=center;verticalAlign=middle;whiteSpace=wrap;rounded=0;" parent="1" vertex="1">
                    <mxGeometry x="-160" y="-70" width="30" height="30" as="geometry"/>
                </mxCell>
                <mxCell id="z6WhGGihtX_Tdaq-nyxz-8" value="N" style="text;html=1;align=center;verticalAlign=middle;whiteSpace=wrap;rounded=0;" parent="1" vertex="1">
                    <mxGeometry x="-135" y="258" width="30" height="30" as="geometry"/>
                </mxCell>
                <mxCell id="z6WhGGihtX_Tdaq-nyxz-9" value="1" style="text;html=1;align=center;verticalAlign=middle;whiteSpace=wrap;rounded=0;" parent="1" vertex="1">
                    <mxGeometry x="-135" y="363" width="30" height="30" as="geometry"/>
                </mxCell>
                <mxCell id="z6WhGGihtX_Tdaq-nyxz-10" value="1" style="text;html=1;align=center;verticalAlign=middle;whiteSpace=wrap;rounded=0;" parent="1" vertex="1">
                    <mxGeometry x="-135" y="434" width="30" height="30" as="geometry"/>
                </mxCell>
                <mxCell id="z6WhGGihtX_Tdaq-nyxz-11" value="1" style="text;html=1;align=center;verticalAlign=middle;whiteSpace=wrap;rounded=0;" parent="1" vertex="1">
                    <mxGeometry x="-210" y="469" width="30" height="30" as="geometry"/>
                </mxCell>
                <mxCell id="z6WhGGihtX_Tdaq-nyxz-12" value="1" style="text;html=1;align=center;verticalAlign=middle;whiteSpace=wrap;rounded=0;" parent="1" vertex="1">
                    <mxGeometry x="-280" y="469" width="30" height="30" as="geometry"/>
                </mxCell>
                <mxCell id="z6WhGGihtX_Tdaq-nyxz-13" value="N" style="text;html=1;align=center;verticalAlign=middle;whiteSpace=wrap;rounded=0;" parent="1" vertex="1">
                    <mxGeometry x="-310" y="435" width="30" height="30" as="geometry"/>
                </mxCell>
                <mxCell id="z6WhGGihtX_Tdaq-nyxz-14" value="1" style="text;html=1;align=center;verticalAlign=middle;whiteSpace=wrap;rounded=0;" parent="1" vertex="1">
                    <mxGeometry x="-310" y="384" width="30" height="30" as="geometry"/>
                </mxCell>
                <mxCell id="z6WhGGihtX_Tdaq-nyxz-15" value="1" style="text;html=1;align=center;verticalAlign=middle;whiteSpace=wrap;rounded=0;" parent="1" vertex="1">
                    <mxGeometry x="-310" y="280" width="30" height="30" as="geometry"/>
                </mxCell>
                <mxCell id="z6WhGGihtX_Tdaq-nyxz-16" value="1" style="text;html=1;align=center;verticalAlign=middle;whiteSpace=wrap;rounded=0;" parent="1" vertex="1">
                    <mxGeometry x="-310" y="243" width="30" height="30" as="geometry"/>
                </mxCell>
                <mxCell id="z6WhGGihtX_Tdaq-nyxz-18" value="1" style="text;html=1;align=center;verticalAlign=middle;whiteSpace=wrap;rounded=0;" parent="1" vertex="1">
                    <mxGeometry x="-310" y="107" width="30" height="30" as="geometry"/>
                </mxCell>
                <mxCell id="z6WhGGihtX_Tdaq-nyxz-19" value="N" style="text;html=1;align=center;verticalAlign=middle;whiteSpace=wrap;rounded=0;" parent="1" vertex="1">
                    <mxGeometry x="-310" y="151" width="30" height="30" as="geometry"/>
                </mxCell>
                <mxCell id="z6WhGGihtX_Tdaq-nyxz-20" value="1" style="text;html=1;align=center;verticalAlign=middle;whiteSpace=wrap;rounded=0;" parent="1" vertex="1">
                    <mxGeometry x="-310" y="2" width="30" height="30" as="geometry"/>
                </mxCell>
                <mxCell id="z6WhGGihtX_Tdaq-nyxz-21" value="1" style="text;html=1;align=center;verticalAlign=middle;whiteSpace=wrap;rounded=0;" parent="1" vertex="1">
                    <mxGeometry x="-310" y="-120" width="30" height="30" as="geometry"/>
                </mxCell>
                <mxCell id="z6WhGGihtX_Tdaq-nyxz-22" value="1" style="text;html=1;align=center;verticalAlign=middle;whiteSpace=wrap;rounded=0;" parent="1" vertex="1">
                    <mxGeometry x="-210" y="-190" width="30" height="30" as="geometry"/>
                </mxCell>
                <mxCell id="z6WhGGihtX_Tdaq-nyxz-23" value="1" style="text;html=1;align=center;verticalAlign=middle;whiteSpace=wrap;rounded=0;" parent="1" vertex="1">
                    <mxGeometry x="-280" y="-190" width="30" height="30" as="geometry"/>
                </mxCell>
                <mxCell id="z6WhGGihtX_Tdaq-nyxz-24" value="1" style="text;html=1;align=center;verticalAlign=middle;whiteSpace=wrap;rounded=0;" parent="1" vertex="1">
                    <mxGeometry x="-70" y="469" width="30" height="30" as="geometry"/>
                </mxCell>
                <mxCell id="qHrooc8EvSYTmoz4ASgz-1" value="TIENE" style="rhombus;whiteSpace=wrap;html=1;fillColor=#1ba1e2;strokeColor=#006EAF;fontColor=#ffffff;" parent="1" vertex="1">
                    <mxGeometry x="-480" y="550" width="80" height="80" as="geometry"/>
                </mxCell>
                <mxCell id="qHrooc8EvSYTmoz4ASgz-2" value="" style="endArrow=none;html=1;rounded=0;exitX=1;exitY=0.5;exitDx=0;exitDy=0;entryX=0.967;entryY=0.201;entryDx=0;entryDy=0;entryPerimeter=0;" parent="1" source="qHrooc8EvSYTmoz4ASgz-1" target="qHrooc8EvSYTmoz4ASgz-7" edge="1">
                    <mxGeometry width="50" height="50" relative="1" as="geometry">
                        <mxPoint x="120" y="640.48" as="sourcePoint"/>
                        <mxPoint x="281.96000000000004" y="539" as="targetPoint"/>
                        <Array as="points">
                            <mxPoint x="249" y="589"/>
                        </Array>
                    </mxGeometry>
                </mxCell>
                <mxCell id="qHrooc8EvSYTmoz4ASgz-3" value="" style="endArrow=none;html=1;rounded=0;entryX=0;entryY=0.5;entryDx=0;entryDy=0;" parent="1" target="zOyQMbyOPdW88MX2vFnT-109" edge="1">
                    <mxGeometry width="50" height="50" relative="1" as="geometry">
                        <mxPoint x="-440" y="550" as="sourcePoint"/>
                        <mxPoint x="-330" y="590.48" as="targetPoint"/>
                        <Array as="points">
                            <mxPoint x="-440" y="343"/>
                        </Array>
                    </mxGeometry>
                </mxCell>
                <mxCell id="qHrooc8EvSYTmoz4ASgz-4" value="1" style="text;html=1;align=center;verticalAlign=middle;resizable=0;points=[];autosize=1;strokeColor=none;fillColor=none;" parent="1" vertex="1">
                    <mxGeometry x="-390" y="320" width="30" height="30" as="geometry"/>
                </mxCell>
                <mxCell id="qHrooc8EvSYTmoz4ASgz-5" value="N" style="text;html=1;align=center;verticalAlign=middle;resizable=0;points=[];autosize=1;strokeColor=none;fillColor=none;" parent="1" vertex="1">
                    <mxGeometry x="-470" y="529.48" width="30" height="30" as="geometry"/>
                </mxCell>
                <mxCell id="qHrooc8EvSYTmoz4ASgz-6" value="1" style="text;html=1;align=center;verticalAlign=middle;whiteSpace=wrap;rounded=0;" parent="1" vertex="1">
                    <mxGeometry x="-410" y="559.48" width="30" height="30" as="geometry"/>
                </mxCell>
                <mxCell id="qHrooc8EvSYTmoz4ASgz-7" value="1" style="text;html=1;align=center;verticalAlign=middle;resizable=0;points=[];autosize=1;strokeColor=none;fillColor=none;" parent="1" vertex="1">
                    <mxGeometry x="220" y="529.48" width="30" height="30" as="geometry"/>
                </mxCell>
                <mxCell id="qHrooc8EvSYTmoz4ASgz-9" value="TIENE" style="rhombus;whiteSpace=wrap;html=1;fillColor=#1ba1e2;strokeColor=#006EAF;fontColor=#ffffff;" parent="1" vertex="1">
                    <mxGeometry x="-560" y="158" width="80" height="80" as="geometry"/>
                </mxCell>
                <mxCell id="qHrooc8EvSYTmoz4ASgz-10" value="" style="endArrow=none;html=1;rounded=0;exitX=0.5;exitY=1;exitDx=0;exitDy=0;entryX=1;entryY=1;entryDx=0;entryDy=0;" parent="1" source="qHrooc8EvSYTmoz4ASgz-9" target="PYBF5W4fdAsEixI2KdSS-1" edge="1">
                    <mxGeometry width="50" height="50" relative="1" as="geometry">
                        <mxPoint x="-190" y="249" as="sourcePoint"/>
                        <mxPoint x="284.85640687119275" y="530.4242712474617" as="targetPoint"/>
                        <Array as="points">
                            <mxPoint x="-520" y="650"/>
                            <mxPoint x="322" y="650"/>
                        </Array>
                    </mxGeometry>
                </mxCell>
                <mxCell id="qHrooc8EvSYTmoz4ASgz-11" value="" style="endArrow=none;html=1;rounded=0;exitX=0.5;exitY=0;exitDx=0;exitDy=0;entryX=0;entryY=0.5;entryDx=0;entryDy=0;" parent="1" source="qHrooc8EvSYTmoz4ASgz-9" target="zOyQMbyOPdW88MX2vFnT-106" edge="1">
                    <mxGeometry width="50" height="50" relative="1" as="geometry">
                        <mxPoint x="-190" y="249" as="sourcePoint"/>
                        <mxPoint x="-640.0000000000001" y="199" as="targetPoint"/>
                        <Array as="points">
                            <mxPoint x="-520" y="70"/>
                        </Array>
                    </mxGeometry>
                </mxCell>
                <mxCell id="qHrooc8EvSYTmoz4ASgz-12" value="1" style="text;html=1;align=center;verticalAlign=middle;resizable=0;points=[];autosize=1;strokeColor=none;fillColor=none;" parent="1" vertex="1">
                    <mxGeometry x="-520" y="228" width="30" height="30" as="geometry"/>
                </mxCell>
                <mxCell id="qHrooc8EvSYTmoz4ASgz-13" value="N" style="text;html=1;align=center;verticalAlign=middle;resizable=0;points=[];autosize=1;strokeColor=none;fillColor=none;" parent="1" vertex="1">
                    <mxGeometry x="-520.0000000000001" y="134" width="30" height="30" as="geometry"/>
                </mxCell>
                <mxCell id="qHrooc8EvSYTmoz4ASgz-14" value="1" style="text;html=1;align=center;verticalAlign=middle;whiteSpace=wrap;rounded=0;" parent="1" vertex="1">
                    <mxGeometry x="-390.0000000000001" y="45" width="30" height="30" as="geometry"/>
                </mxCell>
                <mxCell id="qHrooc8EvSYTmoz4ASgz-15" value="1" style="text;html=1;align=center;verticalAlign=middle;resizable=0;points=[];autosize=1;strokeColor=none;fillColor=none;" parent="1" vertex="1">
                    <mxGeometry x="315" y="529.48" width="30" height="30" as="geometry"/>
                </mxCell>
                <mxCell id="G9cjlH0-CXtqHvHcBSRr-1" value="1" style="text;html=1;align=center;verticalAlign=middle;resizable=0;points=[];autosize=1;strokeColor=none;fillColor=none;" parent="1" vertex="1">
                    <mxGeometry x="235" y="58" width="30" height="30" as="geometry"/>
                </mxCell>
            </root>
        </mxGraphModel>
    </diagram>
    <diagram id="eJn7pEXXOs_6o3yHlqWM" name="Físico">
        <mxGraphModel grid="1" page="1" gridSize="10" guides="1" tooltips="1" connect="1" arrows="1" fold="1" pageScale="1" pageWidth="850" pageHeight="1100" math="0" shadow="0">
            <root>
                <mxCell id="0"/>
                <mxCell id="1" parent="0"/>
                <mxCell id="JnIV3Aqn3Mx89rmUPJkG-1" value="user" style="swimlane;fontStyle=0;childLayout=stackLayout;horizontal=1;startSize=30;horizontalStack=0;resizeParent=1;resizeParentMax=0;resizeLast=0;collapsible=1;marginBottom=0;whiteSpace=wrap;html=1;" vertex="1" parent="1">
                    <mxGeometry x="481" y="165" width="140" height="180" as="geometry"/>
                </mxCell>
                <mxCell id="JnIV3Aqn3Mx89rmUPJkG-2" value="id" style="text;strokeColor=none;fillColor=none;align=left;verticalAlign=middle;spacingLeft=4;spacingRight=4;overflow=hidden;points=[[0,0.5],[1,0.5]];portConstraint=eastwest;rotatable=0;whiteSpace=wrap;html=1;" vertex="1" parent="JnIV3Aqn3Mx89rmUPJkG-1">
                    <mxGeometry y="30" width="140" height="30" as="geometry"/>
                </mxCell>
                <mxCell id="JnIV3Aqn3Mx89rmUPJkG-3" value="email" style="text;strokeColor=none;fillColor=none;align=left;verticalAlign=middle;spacingLeft=4;spacingRight=4;overflow=hidden;points=[[0,0.5],[1,0.5]];portConstraint=eastwest;rotatable=0;whiteSpace=wrap;html=1;" vertex="1" parent="JnIV3Aqn3Mx89rmUPJkG-1">
                    <mxGeometry y="60" width="140" height="30" as="geometry"/>
                </mxCell>
                <mxCell id="JnIV3Aqn3Mx89rmUPJkG-4" value="password" style="text;strokeColor=none;fillColor=none;align=left;verticalAlign=middle;spacingLeft=4;spacingRight=4;overflow=hidden;points=[[0,0.5],[1,0.5]];portConstraint=eastwest;rotatable=0;whiteSpace=wrap;html=1;" vertex="1" parent="JnIV3Aqn3Mx89rmUPJkG-1">
                    <mxGeometry y="90" width="140" height="30" as="geometry"/>
                </mxCell>
                <mxCell id="zcshHwVAKpPAjxR3BU4t-1" value="first_name" style="text;strokeColor=none;fillColor=none;align=left;verticalAlign=middle;spacingLeft=4;spacingRight=4;overflow=hidden;points=[[0,0.5],[1,0.5]];portConstraint=eastwest;rotatable=0;whiteSpace=wrap;html=1;" vertex="1" parent="JnIV3Aqn3Mx89rmUPJkG-1">
                    <mxGeometry y="120" width="140" height="30" as="geometry"/>
                </mxCell>
                <mxCell id="zcshHwVAKpPAjxR3BU4t-2" value="last_name" style="text;strokeColor=none;fillColor=none;align=left;verticalAlign=middle;spacingLeft=4;spacingRight=4;overflow=hidden;points=[[0,0.5],[1,0.5]];portConstraint=eastwest;rotatable=0;whiteSpace=wrap;html=1;" vertex="1" parent="JnIV3Aqn3Mx89rmUPJkG-1">
                    <mxGeometry y="150" width="140" height="30" as="geometry"/>
                </mxCell>
                <mxCell id="JnIV3Aqn3Mx89rmUPJkG-5" value="role" style="swimlane;fontStyle=0;childLayout=stackLayout;horizontal=1;startSize=30;horizontalStack=0;resizeParent=1;resizeParentMax=0;resizeLast=0;collapsible=1;marginBottom=0;whiteSpace=wrap;html=1;" vertex="1" parent="1">
                    <mxGeometry x="981" y="185" width="140" height="120" as="geometry"/>
                </mxCell>
                <mxCell id="JnIV3Aqn3Mx89rmUPJkG-6" value="id" style="text;strokeColor=none;fillColor=none;align=left;verticalAlign=middle;spacingLeft=4;spacingRight=4;overflow=hidden;points=[[0,0.5],[1,0.5]];portConstraint=eastwest;rotatable=0;whiteSpace=wrap;html=1;" vertex="1" parent="JnIV3Aqn3Mx89rmUPJkG-5">
                    <mxGeometry y="30" width="140" height="30" as="geometry"/>
                </mxCell>
                <mxCell id="JnIV3Aqn3Mx89rmUPJkG-7" value="name" style="text;strokeColor=none;fillColor=none;align=left;verticalAlign=middle;spacingLeft=4;spacingRight=4;overflow=hidden;points=[[0,0.5],[1,0.5]];portConstraint=eastwest;rotatable=0;whiteSpace=wrap;html=1;" vertex="1" parent="JnIV3Aqn3Mx89rmUPJkG-5">
                    <mxGeometry y="60" width="140" height="30" as="geometry"/>
                </mxCell>
                <mxCell id="zcshHwVAKpPAjxR3BU4t-11" value="id_project" style="text;strokeColor=none;fillColor=none;align=left;verticalAlign=middle;spacingLeft=4;spacingRight=4;overflow=hidden;points=[[0,0.5],[1,0.5]];portConstraint=eastwest;rotatable=0;whiteSpace=wrap;html=1;" vertex="1" parent="JnIV3Aqn3Mx89rmUPJkG-5">
                    <mxGeometry y="90" width="140" height="30" as="geometry"/>
                </mxCell>
                <mxCell id="JnIV3Aqn3Mx89rmUPJkG-9" value="proj&lt;span style=&quot;background-color: initial;&quot;&gt;ect&lt;/span&gt;" style="swimlane;fontStyle=0;childLayout=stackLayout;horizontal=1;startSize=30;horizontalStack=0;resizeParent=1;resizeParentMax=0;resizeLast=0;collapsible=1;marginBottom=0;whiteSpace=wrap;html=1;" vertex="1" parent="1">
                    <mxGeometry x="481" y="520" width="140" height="120" as="geometry"/>
                </mxCell>
                <mxCell id="JnIV3Aqn3Mx89rmUPJkG-10" value="id" style="text;strokeColor=none;fillColor=none;align=left;verticalAlign=middle;spacingLeft=4;spacingRight=4;overflow=hidden;points=[[0,0.5],[1,0.5]];portConstraint=eastwest;rotatable=0;whiteSpace=wrap;html=1;" vertex="1" parent="JnIV3Aqn3Mx89rmUPJkG-9">
                    <mxGeometry y="30" width="140" height="30" as="geometry"/>
                </mxCell>
                <mxCell id="JnIV3Aqn3Mx89rmUPJkG-11" value="&lt;div&gt;name&lt;/div&gt;" style="text;strokeColor=none;fillColor=none;align=left;verticalAlign=middle;spacingLeft=4;spacingRight=4;overflow=hidden;points=[[0,0.5],[1,0.5]];portConstraint=eastwest;rotatable=0;whiteSpace=wrap;html=1;" vertex="1" parent="JnIV3Aqn3Mx89rmUPJkG-9">
                    <mxGeometry y="60" width="140" height="30" as="geometry"/>
                </mxCell>
                <mxCell id="JnIV3Aqn3Mx89rmUPJkG-12" value="&lt;meta charset=&quot;utf-8&quot;&gt;id_user&lt;div style=&quot;forced-color-adjust: none;&quot;&gt;&lt;br style=&quot;forced-color-adjust: none; color: rgb(0, 0, 0); font-family: Helvetica; font-size: 12px; font-style: normal; font-variant-ligatures: normal; font-variant-caps: normal; font-weight: 400; letter-spacing: normal; orphans: 2; text-align: left; text-indent: 0px; text-transform: none; widows: 2; word-spacing: 0px; -webkit-text-stroke-width: 0px; white-space: normal; background-color: rgb(251, 251, 251); text-decoration-thickness: initial; text-decoration-style: initial; text-decoration-color: initial;&quot;&gt;&lt;/div&gt;" style="text;strokeColor=none;fillColor=none;align=left;verticalAlign=middle;spacingLeft=4;spacingRight=4;overflow=hidden;points=[[0,0.5],[1,0.5]];portConstraint=eastwest;rotatable=0;whiteSpace=wrap;html=1;" vertex="1" parent="JnIV3Aqn3Mx89rmUPJkG-9">
                    <mxGeometry y="90" width="140" height="30" as="geometry"/>
                </mxCell>
                <mxCell id="JnIV3Aqn3Mx89rmUPJkG-13" value="activity" style="swimlane;fontStyle=0;childLayout=stackLayout;horizontal=1;startSize=30;horizontalStack=0;resizeParent=1;resizeParentMax=0;resizeLast=0;collapsible=1;marginBottom=0;whiteSpace=wrap;html=1;" vertex="1" parent="1">
                    <mxGeometry x="180" y="520" width="140" height="150" as="geometry"/>
                </mxCell>
                <mxCell id="JnIV3Aqn3Mx89rmUPJkG-14" value="id" style="text;strokeColor=none;fillColor=none;align=left;verticalAlign=middle;spacingLeft=4;spacingRight=4;overflow=hidden;points=[[0,0.5],[1,0.5]];portConstraint=eastwest;rotatable=0;whiteSpace=wrap;html=1;" vertex="1" parent="JnIV3Aqn3Mx89rmUPJkG-13">
                    <mxGeometry y="30" width="140" height="30" as="geometry"/>
                </mxCell>
                <mxCell id="JnIV3Aqn3Mx89rmUPJkG-15" value="name" style="text;strokeColor=none;fillColor=none;align=left;verticalAlign=middle;spacingLeft=4;spacingRight=4;overflow=hidden;points=[[0,0.5],[1,0.5]];portConstraint=eastwest;rotatable=0;whiteSpace=wrap;html=1;" vertex="1" parent="JnIV3Aqn3Mx89rmUPJkG-13">
                    <mxGeometry y="60" width="140" height="30" as="geometry"/>
                </mxCell>
                <mxCell id="JnIV3Aqn3Mx89rmUPJkG-16" value="id_type" style="text;strokeColor=none;fillColor=none;align=left;verticalAlign=middle;spacingLeft=4;spacingRight=4;overflow=hidden;points=[[0,0.5],[1,0.5]];portConstraint=eastwest;rotatable=0;whiteSpace=wrap;html=1;" vertex="1" parent="JnIV3Aqn3Mx89rmUPJkG-13">
                    <mxGeometry y="90" width="140" height="30" as="geometry"/>
                </mxCell>
                <mxCell id="mDZfxlPogXPbfozCulLC-2" value="id_user" style="text;strokeColor=none;fillColor=none;align=left;verticalAlign=middle;spacingLeft=4;spacingRight=4;overflow=hidden;points=[[0,0.5],[1,0.5]];portConstraint=eastwest;rotatable=0;whiteSpace=wrap;html=1;" vertex="1" parent="JnIV3Aqn3Mx89rmUPJkG-13">
                    <mxGeometry y="120" width="140" height="30" as="geometry"/>
                </mxCell>
                <mxCell id="JnIV3Aqn3Mx89rmUPJkG-17" value="task" style="swimlane;fontStyle=0;childLayout=stackLayout;horizontal=1;startSize=30;horizontalStack=0;resizeParent=1;resizeParentMax=0;resizeLast=0;collapsible=1;marginBottom=0;whiteSpace=wrap;html=1;" vertex="1" parent="1">
                    <mxGeometry x="180" y="275" width="140" height="150" as="geometry"/>
                </mxCell>
                <mxCell id="JnIV3Aqn3Mx89rmUPJkG-18" value="id" style="text;strokeColor=none;fillColor=none;align=left;verticalAlign=middle;spacingLeft=4;spacingRight=4;overflow=hidden;points=[[0,0.5],[1,0.5]];portConstraint=eastwest;rotatable=0;whiteSpace=wrap;html=1;" vertex="1" parent="JnIV3Aqn3Mx89rmUPJkG-17">
                    <mxGeometry y="30" width="140" height="30" as="geometry"/>
                </mxCell>
                <mxCell id="JnIV3Aqn3Mx89rmUPJkG-19" value="name" style="text;strokeColor=none;fillColor=none;align=left;verticalAlign=middle;spacingLeft=4;spacingRight=4;overflow=hidden;points=[[0,0.5],[1,0.5]];portConstraint=eastwest;rotatable=0;whiteSpace=wrap;html=1;" vertex="1" parent="JnIV3Aqn3Mx89rmUPJkG-17">
                    <mxGeometry y="60" width="140" height="30" as="geometry"/>
                </mxCell>
                <mxCell id="JnIV3Aqn3Mx89rmUPJkG-20" value="id_activity" style="text;strokeColor=none;fillColor=none;align=left;verticalAlign=middle;spacingLeft=4;spacingRight=4;overflow=hidden;points=[[0,0.5],[1,0.5]];portConstraint=eastwest;rotatable=0;whiteSpace=wrap;html=1;" vertex="1" parent="JnIV3Aqn3Mx89rmUPJkG-17">
                    <mxGeometry y="90" width="140" height="30" as="geometry"/>
                </mxCell>
                <mxCell id="mDZfxlPogXPbfozCulLC-1" value="id_user" style="text;strokeColor=none;fillColor=none;align=left;verticalAlign=middle;spacingLeft=4;spacingRight=4;overflow=hidden;points=[[0,0.5],[1,0.5]];portConstraint=eastwest;rotatable=0;whiteSpace=wrap;html=1;" vertex="1" parent="JnIV3Aqn3Mx89rmUPJkG-17">
                    <mxGeometry y="120" width="140" height="30" as="geometry"/>
                </mxCell>
                <mxCell id="JnIV3Aqn3Mx89rmUPJkG-22" value="state" style="swimlane;fontStyle=0;childLayout=stackLayout;horizontal=1;startSize=30;horizontalStack=0;resizeParent=1;resizeParentMax=0;resizeLast=0;collapsible=1;marginBottom=0;whiteSpace=wrap;html=1;" vertex="1" parent="1">
                    <mxGeometry x="180" y="-20" width="140" height="150" as="geometry"/>
                </mxCell>
                <mxCell id="JnIV3Aqn3Mx89rmUPJkG-23" value="id" style="text;strokeColor=none;fillColor=none;align=left;verticalAlign=middle;spacingLeft=4;spacingRight=4;overflow=hidden;points=[[0,0.5],[1,0.5]];portConstraint=eastwest;rotatable=0;whiteSpace=wrap;html=1;" vertex="1" parent="JnIV3Aqn3Mx89rmUPJkG-22">
                    <mxGeometry y="30" width="140" height="30" as="geometry"/>
                </mxCell>
                <mxCell id="JnIV3Aqn3Mx89rmUPJkG-25" value="id_type" style="text;strokeColor=none;fillColor=none;align=left;verticalAlign=middle;spacingLeft=4;spacingRight=4;overflow=hidden;points=[[0,0.5],[1,0.5]];portConstraint=eastwest;rotatable=0;whiteSpace=wrap;html=1;" vertex="1" parent="JnIV3Aqn3Mx89rmUPJkG-22">
                    <mxGeometry y="60" width="140" height="30" as="geometry"/>
                </mxCell>
                <mxCell id="xgRKLe7HBTQdAosY7LPU-8" value="id_task" style="text;strokeColor=none;fillColor=none;align=left;verticalAlign=middle;spacingLeft=4;spacingRight=4;overflow=hidden;points=[[0,0.5],[1,0.5]];portConstraint=eastwest;rotatable=0;whiteSpace=wrap;html=1;" vertex="1" parent="JnIV3Aqn3Mx89rmUPJkG-22">
                    <mxGeometry y="90" width="140" height="30" as="geometry"/>
                </mxCell>
                <mxCell id="NcLlAkQgnaSp_i6z6-Xw-1" value="id_user" style="text;strokeColor=none;fillColor=none;align=left;verticalAlign=middle;spacingLeft=4;spacingRight=4;overflow=hidden;points=[[0,0.5],[1,0.5]];portConstraint=eastwest;rotatable=0;whiteSpace=wrap;html=1;" vertex="1" parent="JnIV3Aqn3Mx89rmUPJkG-22">
                    <mxGeometry y="120" width="140" height="30" as="geometry"/>
                </mxCell>
                <mxCell id="JGqWBkmZmn7aRlNhvd3q-1" value="type_state" style="swimlane;fontStyle=0;childLayout=stackLayout;horizontal=1;startSize=30;horizontalStack=0;resizeParent=1;resizeParentMax=0;resizeLast=0;collapsible=1;marginBottom=0;whiteSpace=wrap;html=1;" vertex="1" parent="1">
                    <mxGeometry y="130" width="140" height="120" as="geometry"/>
                </mxCell>
                <mxCell id="JGqWBkmZmn7aRlNhvd3q-2" value="id" style="text;strokeColor=none;fillColor=none;align=left;verticalAlign=middle;spacingLeft=4;spacingRight=4;overflow=hidden;points=[[0,0.5],[1,0.5]];portConstraint=eastwest;rotatable=0;whiteSpace=wrap;html=1;" vertex="1" parent="JGqWBkmZmn7aRlNhvd3q-1">
                    <mxGeometry y="30" width="140" height="30" as="geometry"/>
                </mxCell>
                <mxCell id="JGqWBkmZmn7aRlNhvd3q-3" value="name" style="text;strokeColor=none;fillColor=none;align=left;verticalAlign=middle;spacingLeft=4;spacingRight=4;overflow=hidden;points=[[0,0.5],[1,0.5]];portConstraint=eastwest;rotatable=0;whiteSpace=wrap;html=1;" vertex="1" parent="JGqWBkmZmn7aRlNhvd3q-1">
                    <mxGeometry y="60" width="140" height="30" as="geometry"/>
                </mxCell>
                <mxCell id="JGqWBkmZmn7aRlNhvd3q-4" value="id_project" style="text;strokeColor=none;fillColor=none;align=left;verticalAlign=middle;spacingLeft=4;spacingRight=4;overflow=hidden;points=[[0,0.5],[1,0.5]];portConstraint=eastwest;rotatable=0;whiteSpace=wrap;html=1;" vertex="1" parent="JGqWBkmZmn7aRlNhvd3q-1">
                    <mxGeometry y="90" width="140" height="30" as="geometry"/>
                </mxCell>
                <mxCell id="JGqWBkmZmn7aRlNhvd3q-5" value="type_activity" style="swimlane;fontStyle=0;childLayout=stackLayout;horizontal=1;startSize=30;horizontalStack=0;resizeParent=1;resizeParentMax=0;resizeLast=0;collapsible=1;marginBottom=0;whiteSpace=wrap;html=1;" vertex="1" parent="1">
                    <mxGeometry y="340" width="140" height="120" as="geometry"/>
                </mxCell>
                <mxCell id="JGqWBkmZmn7aRlNhvd3q-6" value="id" style="text;strokeColor=none;fillColor=none;align=left;verticalAlign=middle;spacingLeft=4;spacingRight=4;overflow=hidden;points=[[0,0.5],[1,0.5]];portConstraint=eastwest;rotatable=0;whiteSpace=wrap;html=1;" vertex="1" parent="JGqWBkmZmn7aRlNhvd3q-5">
                    <mxGeometry y="30" width="140" height="30" as="geometry"/>
                </mxCell>
                <mxCell id="JGqWBkmZmn7aRlNhvd3q-7" value="name" style="text;strokeColor=none;fillColor=none;align=left;verticalAlign=middle;spacingLeft=4;spacingRight=4;overflow=hidden;points=[[0,0.5],[1,0.5]];portConstraint=eastwest;rotatable=0;whiteSpace=wrap;html=1;" vertex="1" parent="JGqWBkmZmn7aRlNhvd3q-5">
                    <mxGeometry y="60" width="140" height="30" as="geometry"/>
                </mxCell>
                <mxCell id="JGqWBkmZmn7aRlNhvd3q-8" value="id_project" style="text;strokeColor=none;fillColor=none;align=left;verticalAlign=middle;spacingLeft=4;spacingRight=4;overflow=hidden;points=[[0,0.5],[1,0.5]];portConstraint=eastwest;rotatable=0;whiteSpace=wrap;html=1;" vertex="1" parent="JGqWBkmZmn7aRlNhvd3q-5">
                    <mxGeometry y="90" width="140" height="30" as="geometry"/>
                </mxCell>
                <mxCell id="FTaKCH1ZA2OUGhDfOI4G-1" value="" style="endArrow=none;html=1;rounded=0;exitX=0.5;exitY=0;exitDx=0;exitDy=0;entryX=0;entryY=0.5;entryDx=0;entryDy=0;" edge="1" parent="1" source="JGqWBkmZmn7aRlNhvd3q-1">
                    <mxGeometry width="50" height="50" relative="1" as="geometry">
                        <mxPoint x="380" y="270" as="sourcePoint"/>
                        <mxPoint x="180" y="55" as="targetPoint"/>
                        <Array as="points">
                            <mxPoint x="70" y="55"/>
                        </Array>
                    </mxGeometry>
                </mxCell>
                <mxCell id="4tFGdJA9F7yHSWR55DRt-1" value="1" style="text;html=1;align=center;verticalAlign=middle;whiteSpace=wrap;rounded=0;" vertex="1" parent="1">
                    <mxGeometry x="50" y="105" width="20" height="25" as="geometry"/>
                </mxCell>
                <mxCell id="4tFGdJA9F7yHSWR55DRt-2" value="1" style="text;html=1;align=center;verticalAlign=middle;whiteSpace=wrap;rounded=0;" vertex="1" parent="1">
                    <mxGeometry x="160" y="30" width="20" height="20" as="geometry"/>
                </mxCell>
                <mxCell id="4tFGdJA9F7yHSWR55DRt-3" value="" style="endArrow=none;html=1;rounded=0;entryX=0.5;entryY=1.133;entryDx=0;entryDy=0;entryPerimeter=0;exitX=0.5;exitY=0;exitDx=0;exitDy=0;" edge="1" parent="1" source="JGqWBkmZmn7aRlNhvd3q-5" target="JGqWBkmZmn7aRlNhvd3q-4">
                    <mxGeometry width="50" height="50" relative="1" as="geometry">
                        <mxPoint x="120" y="310" as="sourcePoint"/>
                        <mxPoint x="170" y="260" as="targetPoint"/>
                    </mxGeometry>
                </mxCell>
                <mxCell id="keQjolcdK6Zbn-9Hf-To-1" value="" style="endArrow=none;html=1;rounded=0;entryX=0.5;entryY=1.133;entryDx=0;entryDy=0;exitX=0;exitY=0.5;exitDx=0;exitDy=0;entryPerimeter=0;" edge="1" parent="1" source="JnIV3Aqn3Mx89rmUPJkG-15" target="JGqWBkmZmn7aRlNhvd3q-8">
                    <mxGeometry width="50" height="50" relative="1" as="geometry">
                        <mxPoint x="270" y="420" as="sourcePoint"/>
                        <mxPoint x="320" y="370" as="targetPoint"/>
                        <Array as="points">
                            <mxPoint x="70" y="595"/>
                        </Array>
                    </mxGeometry>
                </mxCell>
                <mxCell id="keQjolcdK6Zbn-9Hf-To-2" value="1" style="text;html=1;align=center;verticalAlign=middle;whiteSpace=wrap;rounded=0;" vertex="1" parent="1">
                    <mxGeometry x="70" y="470" width="20" height="25" as="geometry"/>
                </mxCell>
                <mxCell id="keQjolcdK6Zbn-9Hf-To-3" value="1" style="text;html=1;align=center;verticalAlign=middle;whiteSpace=wrap;rounded=0;" vertex="1" parent="1">
                    <mxGeometry x="160" y="580" width="20" height="20" as="geometry"/>
                </mxCell>
                <mxCell id="keQjolcdK6Zbn-9Hf-To-4" value="" style="endArrow=none;html=1;rounded=0;exitX=0.5;exitY=0;exitDx=0;exitDy=0;entryX=0.5;entryY=1.1;entryDx=0;entryDy=0;entryPerimeter=0;" edge="1" parent="1" source="JnIV3Aqn3Mx89rmUPJkG-13" target="mDZfxlPogXPbfozCulLC-1">
                    <mxGeometry width="50" height="50" relative="1" as="geometry">
                        <mxPoint x="280" y="350" as="sourcePoint"/>
                        <mxPoint x="220" y="460" as="targetPoint"/>
                    </mxGeometry>
                </mxCell>
                <mxCell id="QdVd0pPAyKq0GdOVqlE2-1" value="1" style="text;html=1;align=center;verticalAlign=middle;whiteSpace=wrap;rounded=0;" vertex="1" parent="1">
                    <mxGeometry x="250" y="490" width="20" height="30" as="geometry"/>
                </mxCell>
                <mxCell id="QdVd0pPAyKq0GdOVqlE2-2" value="N" style="text;html=1;align=center;verticalAlign=middle;whiteSpace=wrap;rounded=0;" vertex="1" parent="1">
                    <mxGeometry x="251" y="427" width="30" height="30" as="geometry"/>
                </mxCell>
                <mxCell id="YhUOpDHKLiakbNzCDAWC-5" value="" style="endArrow=none;html=1;rounded=0;entryX=0.481;entryY=1.01;entryDx=0;entryDy=0;entryPerimeter=0;exitX=0.5;exitY=0;exitDx=0;exitDy=0;" edge="1" parent="1" source="JnIV3Aqn3Mx89rmUPJkG-17" target="NcLlAkQgnaSp_i6z6-Xw-1">
                    <mxGeometry width="50" height="50" relative="1" as="geometry">
                        <mxPoint x="200" y="260" as="sourcePoint"/>
                        <mxPoint x="250" y="210" as="targetPoint"/>
                    </mxGeometry>
                </mxCell>
                <mxCell id="YhUOpDHKLiakbNzCDAWC-6" value="N" style="text;html=1;align=center;verticalAlign=middle;whiteSpace=wrap;rounded=0;" vertex="1" parent="1">
                    <mxGeometry x="250" y="135" width="20" height="25" as="geometry"/>
                </mxCell>
                <mxCell id="YhUOpDHKLiakbNzCDAWC-7" value="1" style="text;html=1;align=center;verticalAlign=middle;whiteSpace=wrap;rounded=0;" vertex="1" parent="1">
                    <mxGeometry x="255" y="240" width="20" height="30" as="geometry"/>
                </mxCell>
                <mxCell id="i_Ie49T2pPWyeXkcc-Qh-1" value="1" style="text;html=1;align=center;verticalAlign=middle;whiteSpace=wrap;rounded=0;" vertex="1" parent="1">
                    <mxGeometry x="70" y="250" width="20" height="30" as="geometry"/>
                </mxCell>
                <mxCell id="i_Ie49T2pPWyeXkcc-Qh-2" value="N" style="text;html=1;align=center;verticalAlign=middle;whiteSpace=wrap;rounded=0;" vertex="1" parent="1">
                    <mxGeometry x="70" y="320" width="20" height="20" as="geometry"/>
                </mxCell>
                <mxCell id="xpWi02UAman6SzzGWJd7-1" value="" style="endArrow=none;html=1;rounded=0;exitX=1;exitY=0.5;exitDx=0;exitDy=0;entryX=0;entryY=0.5;entryDx=0;entryDy=0;" edge="1" parent="1" source="JnIV3Aqn3Mx89rmUPJkG-15" target="JnIV3Aqn3Mx89rmUPJkG-11">
                    <mxGeometry width="50" height="50" relative="1" as="geometry">
                        <mxPoint x="520" y="490" as="sourcePoint"/>
                        <mxPoint x="570" y="440" as="targetPoint"/>
                    </mxGeometry>
                </mxCell>
                <mxCell id="xpWi02UAman6SzzGWJd7-2" value="1" style="text;html=1;align=center;verticalAlign=middle;whiteSpace=wrap;rounded=0;" vertex="1" parent="1">
                    <mxGeometry x="461" y="595" width="20" height="30" as="geometry"/>
                </mxCell>
                <mxCell id="pyAd-syQ-KCYiDUms_50-1" value="N" style="text;html=1;align=center;verticalAlign=middle;whiteSpace=wrap;rounded=0;" vertex="1" parent="1">
                    <mxGeometry x="320" y="595" width="30" height="30" as="geometry"/>
                </mxCell>
                <mxCell id="pyAd-syQ-KCYiDUms_50-2" value="" style="endArrow=none;html=1;rounded=0;exitX=0.25;exitY=0;exitDx=0;exitDy=0;entryX=0.236;entryY=1.033;entryDx=0;entryDy=0;entryPerimeter=0;" edge="1" parent="1" source="JnIV3Aqn3Mx89rmUPJkG-9" target="zcshHwVAKpPAjxR3BU4t-2">
                    <mxGeometry width="50" height="50" relative="1" as="geometry">
                        <mxPoint x="521" y="520" as="sourcePoint"/>
                        <mxPoint x="521" y="410" as="targetPoint"/>
                    </mxGeometry>
                </mxCell>
                <mxCell id="pyAd-syQ-KCYiDUms_50-3" value="" style="endArrow=none;html=1;rounded=0;entryX=1;entryY=0.5;entryDx=0;entryDy=0;exitX=0.5;exitY=0;exitDx=0;exitDy=0;" edge="1" parent="1" source="JnIV3Aqn3Mx89rmUPJkG-1">
                    <mxGeometry width="50" height="50" relative="1" as="geometry">
                        <mxPoint x="540" y="260" as="sourcePoint"/>
                        <mxPoint x="320" y="55" as="targetPoint"/>
                        <Array as="points">
                            <mxPoint x="550" y="55"/>
                        </Array>
                    </mxGeometry>
                </mxCell>
                <mxCell id="zcshHwVAKpPAjxR3BU4t-4" value="user_&lt;span style=&quot;background-color: initial;&quot;&gt;role&lt;/span&gt;" style="swimlane;fontStyle=0;childLayout=stackLayout;horizontal=1;startSize=30;horizontalStack=0;resizeParent=1;resizeParentMax=0;resizeLast=0;collapsible=1;marginBottom=0;whiteSpace=wrap;html=1;" vertex="1" parent="1">
                    <mxGeometry x="741" y="170" width="140" height="120" as="geometry"/>
                </mxCell>
                <mxCell id="zcshHwVAKpPAjxR3BU4t-5" value="id" style="text;strokeColor=none;fillColor=none;align=left;verticalAlign=middle;spacingLeft=4;spacingRight=4;overflow=hidden;points=[[0,0.5],[1,0.5]];portConstraint=eastwest;rotatable=0;whiteSpace=wrap;html=1;" vertex="1" parent="zcshHwVAKpPAjxR3BU4t-4">
                    <mxGeometry y="30" width="140" height="30" as="geometry"/>
                </mxCell>
                <mxCell id="zcshHwVAKpPAjxR3BU4t-6" value="id_user" style="text;strokeColor=none;fillColor=none;align=left;verticalAlign=middle;spacingLeft=4;spacingRight=4;overflow=hidden;points=[[0,0.5],[1,0.5]];portConstraint=eastwest;rotatable=0;whiteSpace=wrap;html=1;" vertex="1" parent="zcshHwVAKpPAjxR3BU4t-4">
                    <mxGeometry y="60" width="140" height="30" as="geometry"/>
                </mxCell>
                <mxCell id="zcshHwVAKpPAjxR3BU4t-7" value="id_rol" style="text;strokeColor=none;fillColor=none;align=left;verticalAlign=middle;spacingLeft=4;spacingRight=4;overflow=hidden;points=[[0,0.5],[1,0.5]];portConstraint=eastwest;rotatable=0;whiteSpace=wrap;html=1;" vertex="1" parent="zcshHwVAKpPAjxR3BU4t-4">
                    <mxGeometry y="90" width="140" height="30" as="geometry"/>
                </mxCell>
                <mxCell id="G0DQE0Zmj9UdQP6TPFjy-1" value="user_&lt;span style=&quot;background-color: initial;&quot;&gt;project&lt;/span&gt;" style="swimlane;fontStyle=0;childLayout=stackLayout;horizontal=1;startSize=30;horizontalStack=0;resizeParent=1;resizeParentMax=0;resizeLast=0;collapsible=1;marginBottom=0;whiteSpace=wrap;html=1;" vertex="1" parent="1">
                    <mxGeometry x="671" y="395" width="140" height="120" as="geometry"/>
                </mxCell>
                <mxCell id="G0DQE0Zmj9UdQP6TPFjy-2" value="id" style="text;strokeColor=none;fillColor=none;align=left;verticalAlign=middle;spacingLeft=4;spacingRight=4;overflow=hidden;points=[[0,0.5],[1,0.5]];portConstraint=eastwest;rotatable=0;whiteSpace=wrap;html=1;" vertex="1" parent="G0DQE0Zmj9UdQP6TPFjy-1">
                    <mxGeometry y="30" width="140" height="30" as="geometry"/>
                </mxCell>
                <mxCell id="G0DQE0Zmj9UdQP6TPFjy-3" value="id_user" style="text;strokeColor=none;fillColor=none;align=left;verticalAlign=middle;spacingLeft=4;spacingRight=4;overflow=hidden;points=[[0,0.5],[1,0.5]];portConstraint=eastwest;rotatable=0;whiteSpace=wrap;html=1;" vertex="1" parent="G0DQE0Zmj9UdQP6TPFjy-1">
                    <mxGeometry y="60" width="140" height="30" as="geometry"/>
                </mxCell>
                <mxCell id="G0DQE0Zmj9UdQP6TPFjy-4" value="id_project" style="text;strokeColor=none;fillColor=none;align=left;verticalAlign=middle;spacingLeft=4;spacingRight=4;overflow=hidden;points=[[0,0.5],[1,0.5]];portConstraint=eastwest;rotatable=0;whiteSpace=wrap;html=1;" vertex="1" parent="G0DQE0Zmj9UdQP6TPFjy-1">
                    <mxGeometry y="90" width="140" height="30" as="geometry"/>
                </mxCell>
                <mxCell id="-jz46NBmwldq-He25PaU-1" value="1" style="text;html=1;align=center;verticalAlign=middle;whiteSpace=wrap;rounded=0;" vertex="1" parent="1">
                    <mxGeometry x="511" y="350" width="30" height="30" as="geometry"/>
                </mxCell>
                <mxCell id="-jz46NBmwldq-He25PaU-2" value="N" style="text;html=1;align=center;verticalAlign=middle;whiteSpace=wrap;rounded=0;" vertex="1" parent="1">
                    <mxGeometry x="511" y="490" width="30" height="30" as="geometry"/>
                </mxCell>
                <mxCell id="-jz46NBmwldq-He25PaU-4" value="" style="endArrow=none;html=1;rounded=0;entryX=0.511;entryY=1.116;entryDx=0;entryDy=0;entryPerimeter=0;exitX=1;exitY=0.5;exitDx=0;exitDy=0;" edge="1" parent="1" source="JnIV3Aqn3Mx89rmUPJkG-10" target="G0DQE0Zmj9UdQP6TPFjy-4">
                    <mxGeometry width="50" height="50" relative="1" as="geometry">
                        <mxPoint x="716" y="595" as="sourcePoint"/>
                        <mxPoint x="766" y="545" as="targetPoint"/>
                        <Array as="points">
                            <mxPoint x="743" y="565"/>
                        </Array>
                    </mxGeometry>
                </mxCell>
                <mxCell id="-jz46NBmwldq-He25PaU-5" value="" style="endArrow=none;html=1;rounded=0;entryX=0.775;entryY=1.106;entryDx=0;entryDy=0;entryPerimeter=0;exitX=0.5;exitY=0;exitDx=0;exitDy=0;" edge="1" parent="1" source="G0DQE0Zmj9UdQP6TPFjy-1" target="zcshHwVAKpPAjxR3BU4t-2">
                    <mxGeometry width="50" height="50" relative="1" as="geometry">
                        <mxPoint x="571" y="420" as="sourcePoint"/>
                        <mxPoint x="621" y="370" as="targetPoint"/>
                        <Array as="points">
                            <mxPoint x="741" y="370"/>
                            <mxPoint x="591" y="370"/>
                        </Array>
                    </mxGeometry>
                </mxCell>
                <mxCell id="GR4uLgytYUCdtMQJIefB-1" value="" style="endArrow=none;html=1;rounded=0;exitX=0.991;exitY=0.843;exitDx=0;exitDy=0;exitPerimeter=0;" edge="1" parent="1" source="JnIV3Aqn3Mx89rmUPJkG-3">
                    <mxGeometry width="50" height="50" relative="1" as="geometry">
                        <mxPoint x="701" y="260" as="sourcePoint"/>
                        <mxPoint x="740" y="250" as="targetPoint"/>
                    </mxGeometry>
                </mxCell>
                <mxCell id="GR4uLgytYUCdtMQJIefB-2" value="" style="endArrow=none;html=1;rounded=0;entryX=1;entryY=0.5;entryDx=0;entryDy=0;exitX=-0.015;exitY=-0.012;exitDx=0;exitDy=0;exitPerimeter=0;" edge="1" parent="1" source="JnIV3Aqn3Mx89rmUPJkG-7" target="zcshHwVAKpPAjxR3BU4t-6">
                    <mxGeometry width="50" height="50" relative="1" as="geometry">
                        <mxPoint x="701" y="260" as="sourcePoint"/>
                        <mxPoint x="751" y="210" as="targetPoint"/>
                    </mxGeometry>
                </mxCell>
                <mxCell id="lCoJLVLe3bO2AHdWx0zk-1" value="" style="endArrow=none;html=1;rounded=0;exitX=1;exitY=0.5;exitDx=0;exitDy=0;entryX=0.5;entryY=0.833;entryDx=0;entryDy=0;entryPerimeter=0;" edge="1" parent="1" source="JnIV3Aqn3Mx89rmUPJkG-11" target="zcshHwVAKpPAjxR3BU4t-11">
                    <mxGeometry width="50" height="50" relative="1" as="geometry">
                        <mxPoint x="751" y="645" as="sourcePoint"/>
                        <mxPoint x="801" y="595" as="targetPoint"/>
                        <Array as="points">
                            <mxPoint x="1051" y="595"/>
                        </Array>
                    </mxGeometry>
                </mxCell>
                <mxCell id="8SZGAMHiSwC94cHFsMv2-1" value="1" style="text;html=1;align=center;verticalAlign=middle;whiteSpace=wrap;rounded=0;" vertex="1" parent="1">
                    <mxGeometry x="1051" y="310" width="30" height="30" as="geometry"/>
                </mxCell>
                <mxCell id="8SZGAMHiSwC94cHFsMv2-2" value="N" style="text;html=1;align=center;verticalAlign=middle;whiteSpace=wrap;rounded=0;" vertex="1" parent="1">
                    <mxGeometry x="621" y="590" width="30" height="40" as="geometry"/>
                </mxCell>
                <mxCell id="xgRKLe7HBTQdAosY7LPU-1" value="" style="endArrow=none;html=1;rounded=0;entryX=0.221;entryY=1.133;entryDx=0;entryDy=0;exitX=0.436;exitY=1.067;exitDx=0;exitDy=0;entryPerimeter=0;exitPerimeter=0;" edge="1" parent="1" source="JnIV3Aqn3Mx89rmUPJkG-12" target="JGqWBkmZmn7aRlNhvd3q-8">
                    <mxGeometry width="50" height="50" relative="1" as="geometry">
                        <mxPoint x="140" y="696" as="sourcePoint"/>
                        <mxPoint x="30" y="565" as="targetPoint"/>
                        <Array as="points">
                            <mxPoint x="541" y="696"/>
                            <mxPoint x="30" y="696"/>
                        </Array>
                    </mxGeometry>
                </mxCell>
                <mxCell id="xgRKLe7HBTQdAosY7LPU-2" value="1" style="text;html=1;align=center;verticalAlign=middle;resizable=0;points=[];autosize=1;strokeColor=none;fillColor=none;" vertex="1" parent="1">
                    <mxGeometry x="506" y="658" width="30" height="30" as="geometry"/>
                </mxCell>
                <mxCell id="xgRKLe7HBTQdAosY7LPU-3" value="N" style="text;html=1;align=center;verticalAlign=middle;resizable=0;points=[];autosize=1;strokeColor=none;fillColor=none;" vertex="1" parent="1">
                    <mxGeometry x="25" y="458" width="30" height="30" as="geometry"/>
                </mxCell>
                <mxCell id="xgRKLe7HBTQdAosY7LPU-4" value="" style="endArrow=none;html=1;rounded=0;exitX=0.643;exitY=1.1;exitDx=0;exitDy=0;exitPerimeter=0;entryX=0;entryY=0.5;entryDx=0;entryDy=0;" edge="1" parent="1" source="JnIV3Aqn3Mx89rmUPJkG-12" target="JGqWBkmZmn7aRlNhvd3q-3">
                    <mxGeometry width="50" height="50" relative="1" as="geometry">
                        <mxPoint x="571" y="672" as="sourcePoint"/>
                        <mxPoint x="-90" y="210" as="targetPoint"/>
                        <Array as="points">
                            <mxPoint x="571" y="726"/>
                            <mxPoint x="-90" y="726"/>
                            <mxPoint x="-90" y="205"/>
                        </Array>
                    </mxGeometry>
                </mxCell>
                <mxCell id="xgRKLe7HBTQdAosY7LPU-5" value="N" style="text;html=1;align=center;verticalAlign=middle;resizable=0;points=[];autosize=1;strokeColor=none;fillColor=none;" vertex="1" parent="1">
                    <mxGeometry x="-35" y="168" width="30" height="30" as="geometry"/>
                </mxCell>
                <mxCell id="xgRKLe7HBTQdAosY7LPU-6" value="1" style="text;html=1;align=center;verticalAlign=middle;resizable=0;points=[];autosize=1;strokeColor=none;fillColor=none;" vertex="1" parent="1">
                    <mxGeometry x="566" y="638" width="30" height="30" as="geometry"/>
                </mxCell>
                <mxCell id="CnN_7h2T_X6ON8bsFOiF-1" value="1" style="text;html=1;align=center;verticalAlign=middle;whiteSpace=wrap;rounded=0;" vertex="1" parent="1">
                    <mxGeometry x="551" y="130" width="30" height="30" as="geometry"/>
                </mxCell>
                <mxCell id="NHL9JgKN5XTpXH4wR8FT-1" value="1" style="text;html=1;align=center;verticalAlign=middle;resizable=0;points=[];autosize=1;strokeColor=none;fillColor=none;" vertex="1" parent="1">
                    <mxGeometry x="551" y="130" width="30" height="30" as="geometry"/>
                </mxCell>
                <mxCell id="CnN_7h2T_X6ON8bsFOiF-2" value="N" style="text;html=1;align=center;verticalAlign=middle;whiteSpace=wrap;rounded=0;" vertex="1" parent="1">
                    <mxGeometry x="320" y="25" width="30" height="30" as="geometry"/>
                </mxCell>
                <mxCell id="NHL9JgKN5XTpXH4wR8FT-2" value="N" style="text;html=1;align=center;verticalAlign=middle;resizable=0;points=[];autosize=1;strokeColor=none;fillColor=none;" vertex="1" parent="1">
                    <mxGeometry x="320" y="25" width="30" height="30" as="geometry"/>
                </mxCell>
                <mxCell id="mDZfxlPogXPbfozCulLC-4" value="" style="endArrow=none;html=1;rounded=0;exitX=1.021;exitY=0.15;exitDx=0;exitDy=0;exitPerimeter=0;" edge="1" parent="1" source="JnIV3Aqn3Mx89rmUPJkG-17">
                    <mxGeometry width="50" height="50" relative="1" as="geometry">
                        <mxPoint x="390" y="300" as="sourcePoint"/>
                        <mxPoint x="480" y="298" as="targetPoint"/>
                    </mxGeometry>
                </mxCell>
                <mxCell id="mDZfxlPogXPbfozCulLC-5" value="" style="endArrow=none;html=1;rounded=0;entryX=0;entryY=0.5;entryDx=0;entryDy=0;exitX=1;exitY=0.25;exitDx=0;exitDy=0;" edge="1" parent="1" source="JnIV3Aqn3Mx89rmUPJkG-13" target="zcshHwVAKpPAjxR3BU4t-2">
                    <mxGeometry width="50" height="50" relative="1" as="geometry">
                        <mxPoint x="410" y="480" as="sourcePoint"/>
                        <mxPoint x="460" y="430" as="targetPoint"/>
                        <Array as="points">
                            <mxPoint x="400" y="558"/>
                            <mxPoint x="400" y="330"/>
                        </Array>
                    </mxGeometry>
                </mxCell>
                <mxCell id="xxWK6a--4Z0o4AGvosCA-1" value="1" style="text;html=1;align=center;verticalAlign=middle;whiteSpace=wrap;rounded=0;" vertex="1" parent="1">
                    <mxGeometry x="450" y="275" width="30" height="20" as="geometry"/>
                </mxCell>
                <mxCell id="xxWK6a--4Z0o4AGvosCA-3" value="N" style="text;html=1;align=center;verticalAlign=middle;whiteSpace=wrap;rounded=0;" vertex="1" parent="1">
                    <mxGeometry x="325" y="280" width="20" height="20" as="geometry"/>
                </mxCell>
                <mxCell id="eMPj_b696swn5jfU5-aZ-1" value="1" style="text;html=1;align=center;verticalAlign=middle;whiteSpace=wrap;rounded=0;" vertex="1" parent="1">
                    <mxGeometry x="451" y="305" width="30" height="30" as="geometry"/>
                </mxCell>
                <mxCell id="eMPj_b696swn5jfU5-aZ-2" value="N" style="text;html=1;align=center;verticalAlign=middle;whiteSpace=wrap;rounded=0;" vertex="1" parent="1">
                    <mxGeometry x="321" y="538" width="20" height="20" as="geometry"/>
                </mxCell>
            </root>
        </mxGraphModel>
    </diagram>
</mxfile>